<?xml version="1.0" encoding="utf-8"?><svg xmlns="http://www.w3.org/2000/svg" xmlns:xlink="http://www.w3.org/1999/xlink"><symbol viewBox="0 0 448 512" id="analysis" xmlns="http://www.w3.org/2000/svg"><!--! Font Awesome Pro 6.1.1 by @fontawesome - https://fontawesome.com License - https://fontawesome.com/license (Commercial License) Copyright 2022 Fonticons, Inc.--><path d="M384 32c35.3 0 64 28.65 64 64v320c0 35.3-28.7 64-64 64H64c-35.35 0-64-28.7-64-64V96c0-35.35 28.65-64 64-64h320zM128 224c-17.7 0-32 14.3-32 32v96c0 17.7 14.3 32 32 32s32-14.3 32-32v-96c0-17.7-14.3-32-32-32zm64 128c0 17.7 14.3 32 32 32s32-14.3 32-32V160c0-17.7-14.3-32-32-32s-32 14.3-32 32v192zm128-64c-17.7 0-32 14.3-32 32v32c0 17.7 14.3 32 32 32s32-14.3 32-32v-32c0-17.7-14.3-32-32-32z"/></symbol><symbol viewBox="0 0 512 512" id="arrowRight" xmlns="http://www.w3.org/2000/svg"><!--! Font Awesome Pro 6.0.0 by @fontawesome - https://fontawesome.com License - https://fontawesome.com/license (Commercial License) Copyright 2022 Fonticons, Inc.--><path d="M256 0C114.6 0 0 114.6 0 256s114.6 256 256 256 256-114.6 256-256S397.4 0 256 0zm102.6 278.6l-112 112c-12.5 12.5-32.75 12.5-45.25 0s-12.5-32.75 0-45.25L290.8 256l-89.4-89.4c-12.5-12.5-12.5-32.75 0-45.25s32.75-12.5 45.25 0l112 112C364.9 239.6 368 247.8 368 256s-3.1 16.4-9.4 22.6z"/></symbol><symbol viewBox="0 0 640 512" id="business" xmlns="http://www.w3.org/2000/svg"><!--! Font Awesome Pro 6.1.1 by @fontawesome - https://fontawesome.com License - https://fontawesome.com/license (Commercial License) Copyright 2022 Fonticons, Inc.--><path d="M496 224c-79.6 0-144 64.4-144 144s64.38 144 144 144 144-64.38 144-144-64.4-144-144-144zm48 160h-54.25c-5.35 0-9.75-4.4-9.75-9.7V304c0-8.8 7.2-16 16-16s16 7.2 16 16v48h32c8.838 0 16 7.162 16 16 0 8.8-7.2 16-16 16zm-223.9-32H208c-8.8 0-16-7.2-16-16v-48H0v144c0 25.6 22.41 48 48 48h312.2c-25.1-30.4-40.2-69.5-40.2-112 0-5.4.5-10.7.1-16zM496 192c5.402 0 10.72.33 16 .807V144c0-25.6-22.4-48-48-48h-80V48c0-25.59-22.4-48-48-48H176c-25.6 0-48 22.41-48 48v48H48c-25.59 0-48 22.4-48 48v112h360.2c32.3-39.1 81.1-64 135.8-64zM336 96H176V48h160v48z"/></symbol><symbol viewBox="0 0 320 512" id="facebook" xmlns="http://www.w3.org/2000/svg"><!--! Font Awesome Pro 6.1.1 by @fontawesome - https://fontawesome.com License - https://fontawesome.com/license (Commercial License) Copyright 2022 Fonticons, Inc.--><path d="M279.14 288l14.22-92.66h-88.91v-60.13c0-25.35 12.42-50.06 52.24-50.06h40.42V6.26S260.43 0 225.36 0c-73.22 0-121.08 44.38-121.08 124.72v70.62H22.89V288h81.39v224h100.17V288z"/></symbol><symbol viewBox="0 0 512 512" id="graph" xmlns="http://www.w3.org/2000/svg"><!--! Font Awesome Pro 6.1.1 by @fontawesome - https://fontawesome.com License - https://fontawesome.com/license (Commercial License) Copyright 2022 Fonticons, Inc.--><path d="M64 400c0 8.8 7.16 16 16 16h400c17.7 0 32 14.3 32 32s-14.3 32-32 32H80c-44.18 0-80-35.8-80-80V64c0-17.67 14.33-32 32-32s32 14.33 32 32v336zm278.6-121.4c-12.5 12.5-32.7 12.5-45.2 0L240 221.3l-89.4 89.3c-12.5 12.5-32.7 12.5-45.2 0-12.52-12.5-12.52-32.7 0-45.2l112-112c12.5-12.5 32.7-12.5 45.2 0l57.4 57.3 105.4-105.3c12.5-12.52 32.7-12.52 45.2 0 12.5 12.5 12.5 32.7 0 45.2l-128 128z"/></symbol><symbol viewBox="0 0 448 512" id="instagram" xmlns="http://www.w3.org/2000/svg"><!--! Font Awesome Pro 6.1.1 by @fontawesome - https://fontawesome.com License - https://fontawesome.com/license (Commercial License) Copyright 2022 Fonticons, Inc.--><path d="M224.1 141c-63.6 0-114.9 51.3-114.9 114.9s51.3 114.9 114.9 114.9S339 319.5 339 255.9 287.7 141 224.1 141zm0 189.6c-41.1 0-74.7-33.5-74.7-74.7s33.5-74.7 74.7-74.7 74.7 33.5 74.7 74.7-33.6 74.7-74.7 74.7zm146.4-194.3c0 14.9-12 26.8-26.8 26.8-14.9 0-26.8-12-26.8-26.8s12-26.8 26.8-26.8 26.8 12 26.8 26.8zm76.1 27.2c-1.7-35.9-9.9-67.7-36.2-93.9-26.2-26.2-58-34.4-93.9-36.2-37-2.1-147.9-2.1-184.9 0-35.8 1.7-67.6 9.9-93.9 36.1s-34.4 58-36.2 93.9c-2.1 37-2.1 147.9 0 184.9 1.7 35.9 9.9 67.7 36.2 93.9s58 34.4 93.9 36.2c37 2.1 147.9 2.1 184.9 0 35.9-1.7 67.7-9.9 93.9-36.2 26.2-26.2 34.4-58 36.2-93.9 2.1-37 2.1-147.8 0-184.8zM398.8 388c-7.8 19.6-22.9 34.7-42.6 42.6-29.5 11.7-99.5 9-132.1 9s-102.7 2.6-132.1-9c-19.6-7.8-34.7-22.9-42.6-42.6-11.7-29.5-9-99.5-9-132.1s-2.6-102.7 9-132.1c7.8-19.6 22.9-34.7 42.6-42.6 29.5-11.7 99.5-9 132.1-9s102.7-2.6 132.1 9c19.6 7.8 34.7 22.9 42.6 42.6 11.7 29.5 9 99.5 9 132.1s2.7 102.7-9 132.1z"/></symbol><symbol viewBox="0 0 512 512" id="inteligence" xmlns="http://www.w3.org/2000/svg"><!--! Font Awesome Pro 6.1.1 by @fontawesome - https://fontawesome.com License - https://fontawesome.com/license (Commercial License) Copyright 2022 Fonticons, Inc.--><path d="M184 0c30.9 0 56 25.07 56 56v400c0 30.9-25.1 56-56 56-28.9 0-52.7-21.9-55.7-50.1-5.2 1.4-10.7 2.1-16.3 2.1-35.35 0-64-28.7-64-64 0-7.4 1.27-14.6 3.59-21.2C21.43 367.4 0 338.2 0 304c0-31.9 18.71-59.5 45.77-72.3C37.15 220.8 32 206.1 32 192c0-30.7 21.59-56.3 50.41-62.6C80.84 123.9 80 118 80 112c0-29.94 20.6-55.08 48.3-62.07C131.3 21.86 155.1 0 184 0zm199.7 49.93C411.4 56.92 432 82.06 432 112c0 6-.8 11.9-2.4 17.4 28.8 6.3 50.4 31.9 50.4 62.6 0 14.1-5.1 28.8-13.8 39.7 27.1 12.8 45.8 40.4 45.8 72.3 0 34.2-21.4 63.4-51.6 74.8 2.3 6.6 3.6 13.8 3.6 21.2 0 35.3-28.7 64-64 64-5.6 0-11.1-.7-16.3-2.1-3 28.2-26.8 50.1-55.7 50.1-30.9 0-56-25.1-56-56V56c0-30.93 25.1-56 56-56 28.9 0 52.7 21.86 55.7 49.93z"/></symbol><symbol viewBox="0 0 448 512" id="linkdin" xmlns="http://www.w3.org/2000/svg"><!--! Font Awesome Pro 6.1.1 by @fontawesome - https://fontawesome.com License - https://fontawesome.com/license (Commercial License) Copyright 2022 Fonticons, Inc.--><path d="M100.28 448H7.4V148.9h92.88zM53.79 108.1C24.09 108.1 0 83.5 0 53.8a53.79 53.79 0 01107.58 0c0 29.7-24.1 54.3-53.79 54.3zM447.9 448h-92.68V302.4c0-34.7-.7-79.2-48.29-79.2-48.29 0-55.69 37.7-55.69 76.7V448h-92.78V148.9h89.08v40.8h1.3c12.4-23.5 42.69-48.3 87.88-48.3 94 0 111.28 61.9 111.28 142.3V448z"/></symbol><symbol viewBox="0 0 576 512" id="pieChart" xmlns="http://www.w3.org/2000/svg"><!--! Font Awesome Pro 6.1.1 by @fontawesome - https://fontawesome.com License - https://fontawesome.com/license (Commercial License) Copyright 2022 Fonticons, Inc.--><path d="M304 16.58C304 7.555 310.1 0 320 0c123.7 0 224 100.3 224 224 0 9-7.6 16-16.6 16H304V16.58zM32 272c0-121.3 90.1-221.66 206.1-237.75 10.1-1.26 17.9 6.11 17.9 15.36V288l156.5 156.5c6.7 6.7 6.2 17.7-1.5 23.2-39.2 27.9-87.2 44.3-139 44.3-132.5 0-240-107.4-240-240zm526.4 16c9.2 0 16.6 7.8 15.4 17-7.7 55.9-34.7 105.6-73.9 142.3-6 4.8-15.4 5.2-21.2-.6L320 288h238.4z"/></symbol><symbol viewBox="0 0 0 0" id="sprite" xmlns="http://www.w3.org/2000/svg"/><symbol viewBox="0 0 512 512" id="tool" xmlns="http://www.w3.org/2000/svg"><!--! Font Awesome Pro 6.1.1 by @fontawesome - https://fontawesome.com License - https://fontawesome.com/license (Commercial License) Copyright 2022 Fonticons, Inc.--><path d="M331.8 224.1c28.29 0 54.88 10.99 74.86 30.97l19.59 19.59c40.01-17.74 71.25-53.3 81.62-96.65 5.725-23.92 5.34-47.08.215-68.4-2.613-10.88-16.43-14.51-24.34-6.604l-68.9 68.9h-75.6V97.2l68.9-68.9c7.912-7.912 4.275-21.73-6.604-24.34-21.32-5.125-44.48-5.51-68.4.215-55.3 13.23-98.39 60.22-107.2 116.4C224.5 128.9 224.2 137 224.3 145l82.78 82.86c8.12-2.76 16.42-3.76 24.72-3.76zm52.2 54.5c-23.16-23.16-57.57-27.57-85.39-13.9L191.1 158V95.99L64 0 0 63.1l96 127.1 62.04.008 106.7 106.6c-13.67 27.82-9.251 62.23 13.91 85.39l117 117.1c14.62 14.5 38.21 14.5 52.71-.002l52.75-52.75c14.5-14.5 14.5-38.08-.002-52.71L384 278.6zM227.9 307l-59.2-59.1L19.8 396.8c-26.37 26.37-26.37 69.08 0 95.45C32.96 505.4 50.21 512 67.5 512s34.54-6.592 47.72-19.78l119.1-119.1C225.5 352.3 222.6 329.4 227.9 307zM64 472c-13.25 0-24-10.75-24-24 0-13.26 10.75-24 24-24s24 10.7 24 24-10.75 24-24 24z"/></symbol><symbol viewBox="0 0 512 512" id="twitter" xmlns="http://www.w3.org/2000/svg"><!--! Font Awesome Pro 6.1.1 by @fontawesome - https://fontawesome.com License - https://fontawesome.com/license (Commercial License) Copyright 2022 Fonticons, Inc.--><path d="M459.37 151.716c.325 4.548.325 9.097.325 13.645 0 138.72-105.583 298.558-298.558 298.558-59.452 0-114.68-17.219-161.137-47.106 8.447.974 16.568 1.299 25.34 1.299 49.055 0 94.213-16.568 130.274-44.832-46.132-.975-84.792-31.188-98.112-72.772 6.498.974 12.995 1.624 19.818 1.624 9.421 0 18.843-1.3 27.614-3.573-48.081-9.747-84.143-51.98-84.143-102.985v-1.299c13.969 7.797 30.214 12.67 47.431 13.319-28.264-18.843-46.781-51.005-46.781-87.391 0-19.492 5.197-37.36 14.294-52.954 51.655 63.675 129.3 105.258 216.365 109.807-1.624-7.797-2.599-15.918-2.599-24.04 0-57.828 46.782-104.934 104.934-104.934 30.213 0 57.502 12.67 76.67 33.137 23.715-4.548 46.456-13.32 66.599-25.34-7.798 24.366-24.366 44.833-46.132 57.827 21.117-2.273 41.584-8.122 60.426-16.243-14.292 20.791-32.161 39.308-52.628 54.253z"/></symbol></svg>